<svg width="30" height="39" viewBox="0 0 30 39" fill="none" xmlns="http://www.w3.org/2000/svg">
<path d="M15 38.7894C12.2934 36.4808 9.78468 33.9498 7.49998 31.223C4.07142 27.128 1.88334e-06 21.0295 1.88334e-06 15.2181C-0.00148504 12.2501 0.877517 9.34845 2.52577 6.88027C4.17402 4.4121 6.51742 2.48836 9.25941 1.35251C12.0014 0.216671 15.0187 -0.0802134 17.9295 0.499431C20.8403 1.07908 23.5137 2.50919 25.6114 4.6088C27.008 5.9992 28.115 7.6528 28.8683 9.47387C29.6216 11.2949 30.0062 13.2473 29.9999 15.2181C29.9999 21.0295 25.9285 27.128 22.4999 31.223C20.2152 33.9498 17.7065 36.4808 15 38.7894ZM15 8.7895C13.295 8.7895 11.6599 9.46679 10.4543 10.6724C9.2487 11.878 8.57141 13.5131 8.57141 15.2181C8.57141 16.923 9.2487 18.5581 10.4543 19.7637C11.6599 20.9693 13.295 21.6466 15 21.6466C16.7049 21.6466 18.3401 20.9693 19.5456 19.7637C20.7512 18.5581 21.4285 16.923 21.4285 15.2181C21.4285 13.5131 20.7512 11.878 19.5456 10.6724C18.3401 9.46679 16.7049 8.7895 15 8.7895Z" fill="#5D4FFF"/>
</svg>
