<?xml version="1.0" encoding="utf-8"?>
<!-- Generator: Adobe Illustrator 16.0.0, SVG Export Plug-In . SVG Version: 6.00 Build 0)  -->
<!DOCTYPE svg PUBLIC "-//W3C//DTD SVG 1.1//EN" "http://www.w3.org/Graphics/SVG/1.1/DTD/svg11.dtd">
<svg version="1.1" id="Ebene_1" xmlns="http://www.w3.org/2000/svg" xmlns:xlink="http://www.w3.org/1999/xlink" x="0px" y="0px"
	 width="143.494px" height="133.333px" viewBox="0 0 143.494 133.333" enable-background="new 0 0 143.494 133.333"
	 xml:space="preserve">
<g>
	<g>
		<path fill="#5D4FFF" d="M34.792,60.606c0.682-4.631,4.756-8.205,9.708-8.205c5.45,0,9.885,4.28,9.885,9.553v4.104h35.991v-4.104
			c0-5.273,4.429-9.553,9.883-9.553c5.002,0,9.111,3.624,9.754,8.3l7.356-7.047c-4.22-7.963-12.018-13.356-20.989-13.356h-3.423
			c-0.617-9.954-9.552-17.893-20.554-17.893c-11.006,0-19.943,7.939-20.56,17.893h-3.417c-9.106,0-17.026,5.498-21.181,13.668
			L34.792,60.606z M72.402,28.695c7.518,0,13.633,5.122,14.264,11.603H58.132C58.759,33.817,64.884,28.695,72.402,28.695z"/>
	</g>
	<g>
		<path fill="#A1A2FF" d="M110.141,68.927v1.639c0,5.287-4.436,9.587-9.883,9.587c-4.921,0-8.976-3.508-9.728-8.08H54.229
			c-0.752,4.572-4.813,8.08-9.73,8.08c-5.427,0-9.842-4.3-9.842-9.587v-2.061l-9.599-8.44c-0.581,2.271-0.982,4.612-0.982,7.072
			v12.621c0,14.819,10.907,26.849,24.348,26.849h47.955c13.441,0,24.298-12.029,24.298-26.849V67.137
			c0-2.566-0.432-4.997-1.039-7.353L110.141,68.927z"/>
	</g>
	<g>
		<path fill="#5D4FFF" d="M104.117,61.955c0-1.965-1.744-3.538-3.859-3.538c-2.125,0-3.869,1.573-3.869,3.538v4.104v4.506
			c0,1.959,1.744,3.573,3.869,3.573c2.115,0,3.859-1.614,3.859-3.573v-3.088l-0.01-1.128l0.01-0.01V61.955z"/>
	</g>
	<g>
		<path fill="#5D4FFF" d="M44.499,58.417c-2.119,0-3.822,1.573-3.822,3.538v8.611c0,1.959,1.704,3.573,3.822,3.573
			c2.121,0,3.865-1.614,3.865-3.573V66.06v-4.104C48.364,59.99,46.62,58.417,44.499,58.417z"/>
	</g>
</g>
</svg>
