<?xml version="1.0" encoding="utf-8"?>
<!-- Generator: Adobe Illustrator 16.0.0, SVG Export Plug-In . SVG Version: 6.00 Build 0)  -->
<!DOCTYPE svg PUBLIC "-//W3C//DTD SVG 1.1//EN" "http://www.w3.org/Graphics/SVG/1.1/DTD/svg11.dtd">
<svg version="1.1" id="Ebene_1" xmlns="http://www.w3.org/2000/svg" xmlns:xlink="http://www.w3.org/1999/xlink" x="0px" y="0px"
	 width="511.565px" height="95.918px" viewBox="0 0 511.565 95.918" enable-background="new 0 0 511.565 95.918"
	 xml:space="preserve">
<g>
	<path fill="#5D4FFF" d="M143.371,32.266c-6.659,0-10.619,3.243-10.647,7.662c-0.059,4.907,5.166,6.945,9.986,8.093l5.51,1.378
		c8.841,2.095,17.248,6.744,17.276,16.932c-0.028,10.359-8.208,17.391-22.299,17.391c-13.687,0-22.382-6.572-22.814-18.252h10.476
		c0.429,6.17,5.594,9.154,12.254,9.154c6.943,0,11.707-3.357,11.735-8.379c-0.028-4.563-4.218-6.543-10.561-8.15l-6.686-1.722
		c-9.671-2.497-15.668-7.347-15.668-15.784c-0.03-10.389,9.24-17.333,21.58-17.333c12.513,0,20.978,7.031,21.18,16.96h-10.246
		C153.903,35.222,149.713,32.266,143.371,32.266z"/>
	<path fill="#5D4FFF" d="M184.886,82.831h-10.388V24.059h10.159v22.183h0.517c2.036-4.993,6.343-8.063,13.114-8.063
		c9.155,0,15.182,5.94,15.182,16.587v28.065h-10.389V56.373c0-5.94-3.214-9.413-8.668-9.413c-5.566,0-9.527,3.673-9.527,10.044
		V82.831z"/>
	<path fill="#5D4FFF" d="M221.956,70.463c0-9.93,8.18-12.484,16.729-13.402c7.778-0.833,10.905-0.976,10.905-3.961v-0.171
		c0-4.333-2.639-6.802-7.462-6.802c-5.078,0-8.006,2.584-9.038,5.597l-9.701-1.378c2.296-8.035,9.413-12.167,18.684-12.167
		c8.409,0,17.906,3.501,17.906,15.152v29.5h-9.985v-6.055h-0.345c-1.896,3.703-6.026,6.945-12.943,6.945
		C228.298,83.721,221.956,79.129,221.956,70.463z M249.621,67.02v-5.195c-1.349,1.091-6.803,1.779-9.528,2.152
		c-4.648,0.66-8.12,2.324-8.12,6.313c0,3.818,3.099,5.799,7.431,5.799C245.659,76.088,249.621,71.926,249.621,67.02z"/>
	<path fill="#5D4FFF" d="M270.449,38.752h10.072v7.346h0.46c1.606-5.107,5.824-7.978,10.875-7.978c1.148,0,2.784,0.115,3.731,0.286
		v9.557c-0.889-0.286-3.07-0.602-4.82-0.602c-5.712,0-9.932,3.96-9.932,9.557v25.913h-10.387V38.752z"/>
	<path fill="#5D4FFF" d="M298.767,61.05c0-13.603,8.235-22.872,20.864-22.872c10.847,0,20.145,6.801,20.145,22.269v3.186h-30.707
		c0.087,7.548,4.534,11.968,11.25,11.968c4.478,0,7.921-1.951,9.326-5.684l9.702,1.092c-1.837,7.662-8.897,12.684-19.172,12.684
		C306.887,83.692,298.767,74.881,298.767,61.05z M329.819,56.63c-0.059-5.998-4.077-10.359-10.044-10.359
		c-6.2,0-10.361,4.734-10.678,10.359H329.819z"/>
	<path fill="#A1A2FF" d="M369.038,44.492h-9.873v38.339h-6.771V44.492h-7.117v-5.74h7.117v-6.083
		c0-7.577,6.084-11.365,12.396-11.365c3.329,0,5.396,0.688,6.43,1.148l-1.952,5.854c-0.689-0.229-1.836-0.688-3.788-0.688
		c-4.478,0-6.314,2.296-6.314,6.658v4.477h9.873V44.492z"/>
	<path fill="#A1A2FF" d="M374.659,61.021c0-13.775,8.034-22.843,19.974-22.843c11.937,0,19.973,9.068,19.973,22.843
		c0,13.661-8.036,22.729-19.973,22.729C382.693,83.75,374.659,74.682,374.659,61.021z M407.833,61.021
		c0-8.839-4.133-16.76-13.201-16.76s-13.202,7.92-13.202,16.76c0,8.838,4.134,16.645,13.202,16.645S407.833,69.86,407.833,61.021z"
		/>
	<path fill="#A1A2FF" d="M431.7,82.831h-6.771V24.059h6.771V82.831z"/>
	<path fill="#A1A2FF" d="M442.716,26.813c0-2.525,2.181-4.592,4.822-4.592c2.639,0,4.82,2.067,4.82,4.592s-2.182,4.592-4.82,4.592
		C444.897,31.405,442.716,29.338,442.716,26.813z M444.095,38.752h6.771v44.079h-6.771V38.752z"/>
	<path fill="#A1A2FF" d="M461.195,61.021c0-13.775,8.034-22.843,19.974-22.843c11.938,0,19.974,9.068,19.974,22.843
		c0,13.661-8.036,22.729-19.974,22.729C469.229,83.75,461.195,74.682,461.195,61.021z M494.37,61.021
		c0-8.839-4.133-16.76-13.201-16.76s-13.201,7.92-13.201,16.76c0,8.838,4.133,16.645,13.201,16.645S494.37,69.86,494.37,61.021z"/>
</g>
<g>
	<g>
		<path fill="#5D4FFF" d="M17.104,42.239c0.682-4.631,4.756-8.205,9.708-8.205c5.45,0,9.885,4.28,9.885,9.553v4.104h35.991v-4.104
			c0-5.273,4.429-9.553,9.883-9.553c5.002,0,9.111,3.624,9.754,8.3l7.356-7.047c-4.22-7.963-12.018-13.356-20.989-13.356h-3.423
			c-0.617-9.954-9.552-17.893-20.554-17.893c-11.006,0-19.943,7.939-20.56,17.893h-3.417c-9.106,0-17.026,5.498-21.181,13.668
			L17.104,42.239z M54.715,10.328c7.518,0,13.633,5.122,14.264,11.603H40.445C41.072,15.45,47.197,10.328,54.715,10.328z"/>
	</g>
	<g>
		<path fill="#A1A2FF" d="M92.454,50.559v1.639c0,5.287-4.436,9.587-9.883,9.587c-4.921,0-8.976-3.508-9.728-8.08H36.542
			c-0.752,4.572-4.813,8.08-9.73,8.08c-5.427,0-9.842-4.3-9.842-9.587v-2.061l-9.599-8.44c-0.581,2.271-0.982,4.612-0.982,7.072
			v12.62c0,14.82,10.907,26.849,24.348,26.849h47.955c13.441,0,24.298-12.029,24.298-26.849V48.77c0-2.566-0.432-4.997-1.039-7.353
			L92.454,50.559z"/>
	</g>
	<g>
		<path fill="#5D4FFF" d="M86.43,43.587c0-1.965-1.744-3.538-3.859-3.538c-2.125,0-3.869,1.573-3.869,3.538v4.104v4.506
			c0,1.959,1.744,3.573,3.869,3.573c2.115,0,3.859-1.614,3.859-3.573V49.11l-0.01-1.128l0.01-0.01V43.587z"/>
	</g>
	<g>
		<path fill="#5D4FFF" d="M26.812,40.049c-2.119,0-3.822,1.573-3.822,3.538v8.611c0,1.959,1.704,3.573,3.822,3.573
			c2.121,0,3.865-1.614,3.865-3.573v-4.506v-4.104C30.677,41.623,28.933,40.049,26.812,40.049z"/>
	</g>
</g>
</svg>
